<?xml version="1.0" standalone="no"?>
<!DOCTYPE svg PUBLIC "-//W3C//DTD SVG 20010904//EN"
 "http://www.w3.org/TR/2001/REC-SVG-20010904/DTD/svg10.dtd">
<svg version="1.0" xmlns="http://www.w3.org/2000/svg"
 width="500.000000pt" height="500.000000pt" viewBox="0 0 500.000000 500.000000"
 preserveAspectRatio="xMidYMid meet">
<metadata>
Created by potrace 1.14, written by Peter Selinger 2001-2017
</metadata>
<g transform="translate(0.000000,500.000000) scale(0.100000,-0.100000)"
fill="#000000" stroke="none">
<path d="M2385 3952 c-112 -7 -301 -51 -410 -94 -329 -130 -605 -377 -761
-678 -80 -154 -110 -243 -149 -440 -46 -233 -11 -556 85 -785 33 -79 46 -105
90 -181 258 -449 723 -720 1250 -729 394 -6 791 164 1068 457 115 121 232 299
282 429 11 30 25 63 30 74 20 46 39 121 65 254 19 102 25 279 12 381 -4 36 -9
79 -11 96 -14 125 -103 374 -179 499 -184 304 -457 528 -777 638 -92 32 -194
58 -240 62 -8 1 -35 5 -60 9 -47 8 -227 13 -295 8z m300 -56 c17 -3 46 -8 65
-11 19 -3 43 -8 52 -11 9 -3 25 -7 36 -9 50 -9 209 -68 283 -105 487 -240 794
-743 783 -1280 -3 -164 -17 -248 -65 -404 -78 -252 -214 -455 -439 -656 -86
-78 -283 -192 -413 -240 -48 -18 -212 -60 -297 -76 -49 -9 -319 -11 -355 -3
-16 4 -59 13 -95 19 -244 43 -506 173 -685 340 -74 68 -201 213 -215 244 -3 6
-18 31 -34 56 -102 156 -182 387 -203 580 -20 183 -3 382 46 551 155 533 620
932 1170 1003 93 12 305 14 366 2z"/>
<path d="M2499 3635 c0 -12 -3 -15 -6 -7 -3 8 -55 -69 -115 -170 -61 -101
-129 -213 -152 -251 -22 -37 -48 -80 -56 -95 -8 -15 -25 -41 -38 -59 -12 -17
-22 -33 -22 -36 0 -3 -57 -99 -127 -213 -178 -295 -182 -302 -176 -308 4 -3 0
-6 -8 -6 -19 -1 8 -21 96 -72 39 -23 174 -103 300 -178 283 -169 292 -173 298
-157 3 7 6 5 6 -5 1 -14 16 -9 84 31 45 27 100 59 122 71 22 12 46 27 53 32 7
6 29 20 51 32 21 11 117 68 214 125 134 80 174 108 172 122 -4 20 -30 67 -107
194 -230 380 -430 712 -495 822 -80 135 -93 152 -94 128z m-2 -47 c-3 -8 -6
-5 -6 6 -1 11 2 17 5 13 3 -3 4 -12 1 -19z m-497 -1008 c-8 -5 -19 -10 -25
-10 -5 0 -3 5 5 10 8 5 20 10 25 10 6 0 3 -5 -5 -10z m-150 -70 c-8 -5 -19
-10 -25 -10 -5 0 -3 5 5 10 8 5 20 10 25 10 6 0 3 -5 -5 -10z m1320 -10 c8 -5
11 -10 5 -10 -5 0 -17 5 -25 10 -8 5 -10 10 -5 10 6 0 17 -5 25 -10z"/>
<path d="M1820 2305 c0 -9 446 -644 479 -682 6 -7 11 -16 11 -22 0 -5 4 -11 8
-13 4 -1 43 -54 87 -116 62 -88 81 -109 87 -95 5 13 7 10 7 -12 l1 -29 17 24
c9 14 114 162 234 330 119 168 229 324 245 346 16 23 56 79 89 125 88 124 106
151 98 146 -17 -9 -260 -152 -461 -271 -118 -69 -217 -126 -222 -126 -8 0
-645 374 -667 392 -7 6 -13 7 -13 3z m677 -467 c-3 -7 -5 -2 -5 12 0 14 2 19
5 13 2 -7 2 -19 0 -25z m0 -70 c-3 -8 -6 -5 -6 6 -1 11 2 17 5 13 3 -3 4 -12
1 -19z m0 -65 c-3 -10 -5 -2 -5 17 0 19 2 27 5 18 2 -10 2 -26 0 -35z"/>
</g>
</svg>
